<?xml version="1.0" encoding="UTF-8" standalone="no"?>
<!-- Created with Inkscape (http://www.inkscape.org/) -->

<svg
   xmlns:dc="http://purl.org/dc/elements/1.1/"
   xmlns:cc="http://creativecommons.org/ns#"
   xmlns:rdf="http://www.w3.org/1999/02/22-rdf-syntax-ns#"
   xmlns:svg="http://www.w3.org/2000/svg"
   xmlns="http://www.w3.org/2000/svg"
   xmlns:sodipodi="http://sodipodi.sourceforge.net/DTD/sodipodi-0.dtd"
   xmlns:inkscape="http://www.inkscape.org/namespaces/inkscape"
   width="1051.7134"
   height="500"
   viewBox="0 0 1051.7134 500"
   id="svg6584"
   version="1.1"
   inkscape:version="0.91 r13725"
   sodipodi:docname="trans-baltimore-final.svg"
   inkscape:export-filename="/home/poco/Downloads/trans baltimore logo/trans-baltimore.png"
   inkscape:export-xdpi="225.88"
   inkscape:export-ydpi="225.88">
  <defs
     id="defs6586" />
  <sodipodi:namedview
     id="base"
     pagecolor="#f0f0be"
     bordercolor="#666666"
     borderopacity="1.0"
     inkscape:pageopacity="1"
     inkscape:pageshadow="2"
     inkscape:zoom="0.5"
     inkscape:cx="612.28569"
     inkscape:cy="68.518979"
     inkscape:document-units="px"
     inkscape:current-layer="g4871"
     showgrid="false"
     units="px"
     width="2048px"
     inkscape:window-width="1366"
     inkscape:window-height="717"
     inkscape:window-x="0"
     inkscape:window-y="25"
     inkscape:window-maximized="1"
     inkscape:snap-bbox="true"
     inkscape:snap-text-baseline="true"
     inkscape:snap-center="true"
     inkscape:snap-object-midpoints="true"
     inkscape:snap-grids="false"
     inkscape:bbox-paths="true"
     inkscape:bbox-nodes="true"
     inkscape:snap-bbox-edge-midpoints="true"
     inkscape:snap-bbox-midpoints="true"
     inkscape:object-paths="true"
     inkscape:snap-intersection-paths="true"
     inkscape:object-nodes="true"
     inkscape:snap-smooth-nodes="true"
     inkscape:snap-midpoints="true"
     inkscape:snap-page="true"
     inkscape:snap-global="false"
     showguides="false"
     inkscape:guide-bbox="true"
     fit-margin-top="0"
     fit-margin-left="0"
     fit-margin-right="50"
     fit-margin-bottom="0">
    <inkscape:grid
       type="xygrid"
       id="grid6592"
       spacingx="50"
       spacingy="50"
       originx="-3.7376111e-06"
       originy="-9.967828e-06" />
    <sodipodi:guide
       position="250,499.99999"
       orientation="0,1"
       id="guide4471" />
    <sodipodi:guide
       position="1000.3571,291.07142"
       orientation="0,1"
       id="guide4473" />
    <sodipodi:guide
       position="1002.6613,262.49999"
       orientation="0,1"
       id="guide5108" />
    <sodipodi:guide
       position="1000,136.78741"
       orientation="0,1"
       id="guide3389" />
    <sodipodi:guide
       position="1000,131.75977"
       orientation="0,1"
       id="guide3391" />
    <sodipodi:guide
       position="1000,125.0528"
       orientation="0,1"
       id="guide3393" />
    <sodipodi:guide
       position="1000,116.67195"
       orientation="0,1"
       id="guide3395" />
    <sodipodi:guide
       position="361.84376,151.87698"
       orientation="0,1"
       id="guide4594" />
  </sodipodi:namedview>
  <metadata
     id="metadata6589">
    <rdf:RDF>
      <cc:Work
         rdf:about="">
        <dc:format>image/svg+xml</dc:format>
        <dc:type
           rdf:resource="http://purl.org/dc/dcmitype/StillImage" />
        <dc:title></dc:title>
      </cc:Work>
    </rdf:RDF>
  </metadata>
  <g
     inkscape:label="Layer 1"
     inkscape:groupmode="layer"
     id="layer1"
     transform="translate(-3.737611e-6,-552.36219)">
    <g
       id="g4837">
      <g
         id="g4871">
        <rect
           style="opacity:1;fill:#ffffff;fill-opacity:1;fill-rule:nonzero;stroke:none;stroke-width:5;stroke-linecap:round;stroke-linejoin:round;stroke-miterlimit:4;stroke-dasharray:none;stroke-dashoffset:0;stroke-opacity:1"
           id="rect4446"
           width="1051.7134"
           height="500"
           x="3.737611e-06"
           y="552.36218" />
        <flowRoot
           xml:space="preserve"
           id="flowRoot6594"
           style="font-style:normal;font-weight:normal;font-size:45px;line-height:125%;font-family:sans-serif;text-align:end;letter-spacing:0px;word-spacing:0px;writing-mode:lr-tb;text-anchor:end;fill:#000000;fill-opacity:1;stroke:none;stroke-width:1px;stroke-linecap:butt;stroke-linejoin:miter;stroke-opacity:1"><flowRegion
             id="flowRegion6596"><rect
               id="rect6598"
               width="700"
               height="600"
               x="350"
               y="200" /></flowRegion><flowPara
             id="flowPara6600" /></flowRoot>        <flowRoot
           xml:space="preserve"
           id="flowRoot3365"
           style="font-style:normal;font-variant:normal;font-weight:500;font-stretch:normal;font-size:45px;line-height:125%;font-family:Artifika;-inkscape-font-specification:'Artifika Medium';text-align:end;letter-spacing:0px;word-spacing:0px;writing-mode:lr-tb;text-anchor:end;fill:#000000;fill-opacity:1;stroke:none;stroke-width:1px;stroke-linecap:butt;stroke-linejoin:miter;stroke-opacity:1"
           transform="translate(0,52.3622)"><flowRegion
             id="flowRegion3367"><rect
               id="rect3369"
               width="800"
               height="450"
               x="150"
               y="200"
               style="font-style:normal;font-variant:normal;font-weight:500;font-stretch:normal;font-family:Artifika;-inkscape-font-specification:'Artifika Medium'" /></flowRegion><flowPara
             id="flowPara3371" /></flowRoot>        <g
           id="g4543"
           transform="matrix(0.52142857,0,0,1,478.57143,0)" />
        <g
           id="g4905">
          <path
             sodipodi:nodetypes="csccccccccsscccccccccsccccccccccccccccccccccccccccccccccc"
             inkscape:connector-curvature="0"
             id="path4309"
             d="m 364.80078,681.03992 c -27.77875,0.011 -56.41262,2.63251 -86.39062,8.16993 -106.58845,19.68861 -187.439876,120.69263 -123.09571,197.4707 29.52189,33.28419 63.20888,31.36015 110.61133,31.14648 l 734.07422,0 0,-8.67187 -734.07422,0 c -1.3086,-0.0595 -2.69572,-0.12969 -4.05273,-0.19531 -0.0227,-10e-4 -0.0438,-0.003 -0.0664,-0.004 -36.90701,-1.78752 -90.32753,-6.73679 -90.91992,-62.58203 4.42301,-46.99697 74.55228,-93.76686 140.0664,-102.36133 65.51417,-8.59445 54.79897,-5.70836 88.5254,-15.5293 4.37161,-1.27299 8.46856,-2.36554 12.33203,-3.31445 0.93248,2.24645 1.92682,3.8358 2.69726,3.74805 0.21599,-0.0841 0.77045,-0.27951 0.85547,-0.32813 1.83354,-0.46191 3.7352,-0.62478 5.61133,-0.83789 4.14171,-0.43018 8.29767,-0.57664 12.45898,-0.49414 5.58846,0.12374 11.15264,0.68147 16.71485,1.19531 5.99919,0.64451 11.98994,1.36814 17.98242,2.07227 1.89256,0.20957 3.78375,0.42611 5.67578,0.64062 -0.0538,2.05711 0.18406,3.57384 0.87305,3.69141 2.17415,0.34717 4.34554,0.7081 6.50976,1.11328 2.37596,0.44482 4.75322,0.88242 7.13672,1.28516 2.2911,0.4133 4.58034,0.83249 6.85938,1.30859 2.15226,0.45688 4.30349,0.92346 6.43164,1.48438 1.98816,0.48021 3.96013,1.0238 5.92383,1.5957 1.9931,0.57683 3.99195,1.13427 5.95703,1.80273 2.13504,0.72731 4.2489,1.51634 6.37695,2.26368 2.32986,0.85031 4.65481,1.7116 6.95312,2.64453 2.31588,0.93077 4.61349,1.91201 6.84376,3.03515 2.04916,1.00118 4.11255,1.97384 6.15039,2.99805 1.96258,1.02853 3.91571,2.07402 5.88085,3.09766 1.86458,1.00426 3.72893,2.01313 5.64454,2.91797 1.72223,0.81665 3.44556,1.63223 5.20117,2.375 1.49391,0.59084 2.98775,1.18349 4.47656,1.7871 1.61129,0.66257 3.22683,1.31097 4.83203,1.98829 1.77943,0.72104 3.56671,1.4212 5.36133,2.10351 3.81782,0.82959 2.81475,-1.83067 14.57617,-0.0371 6.21314,0.1618 12.42698,0.27753 18.64258,0.24805 7.94906,-0.15675 15.86569,-0.96249 23.76562,-1.79102 4.08588,-0.0836 8.19523,1.04622 12.25586,0.26368 2.05982,-0.7077 3.93149,-3.09646 2.95118,-5.30079 -0.10736,-0.2023 -0.26676,-0.3755 -0.44336,-0.51953 -13.08271,-7.55319 -38.58022,-18.16283 -73.83008,-34.51562 -67.94641,-28.97132 -133.34579,-45.9929 -204.33594,-45.96485 z m 49.70703,47.87696 c -0.11768,0.0458 -0.16193,0.0672 0.0879,-0.006 -0.0283,0.008 -0.059,0.003 -0.0879,0.006 z m 236.1543,37.74023 c -1.4706,0.13451 -1.9299,2.33771 -0.69336,3.11328 1.39955,1.25989 3.1404,2.05624 4.74414,3.01563 5.34124,2.71998 11.16015,4.40734 17.0332,5.50976 3.24555,0.45956 6.70928,0.63689 9.7793,-0.71289 0.58765,-0.53319 0.51013,-1.57161 -0.125,-2.0332 -7.1924,-3.07052 -14.79919,-5.06357 -22.38086,-6.92773 -2.78582,-0.64748 -5.56509,-1.3814 -8.35742,-1.96485 z"
             style="opacity:1;fill:#f8a7b8;fill-opacity:1;fill-rule:nonzero;stroke:none;stroke-width:5;stroke-linecap:round;stroke-linejoin:round;stroke-miterlimit:4;stroke-dasharray:none;stroke-dashoffset:0;stroke-opacity:1" />
          <g
             transform="matrix(0.15472358,0.13615898,-0.10892718,0.12377887,573.456,787.84601)"
             id="g5119">
            <path
               sodipodi:nodetypes="zzczsccccccccccccssscccsccsscccssssccccccsssccscccccccccccccscccsscccccccccccccccccz"
               id="path5023"
               d="m -1925.9799,643.93653 c -143.6639,249.21084 -222.0232,436.10367 -241.148,821.19997 -19.1247,385.0964 229.336,958.5438 624.791,1035.7081 54.9591,17.7164 140.0977,10.7047 204.8495,-5.3092 64.7518,-16.0139 108.1617,-33.7553 157.6344,-58.8673 118.902,-60.3538 292.04604,-193.9805 559.70652,-494.2795 L 2053.6339,-998.81788 2025.8438,-1038.2919 -647.93662,1902.9146 c -143.97864,146.2827 -215.09994,231.1643 -306.06634,309.8381 -244.53834,216.5803 -486.41934,241.0599 -682.03904,140.2334 -4.4438,-1.8375 -8.853,-3.7956 -13.1895,-6.0042 -2.0987,-1.4165 -4.1911,-2.8404 -6.2892,-4.2535 -1.3322,-0.8712 -2.6573,-1.7597 -3.9882,-2.6346 -463.3249,-267.7553 -646.4044,-1250.9094 65.6702,-2008.45018 8.1578,-9.11827 16.3786,-18.17271 24.6733,-27.17249 7.3433,-7.96801 14.748,-15.87745 22.1954,-23.75271 2.4191,-2.55796 4.8629,-5.09528 7.2928,-7.64348 4.9757,-5.21799 9.9574,-10.43133 14.9779,-15.6081 3.2373,-3.33803 6.4993,-6.65248 9.755,-9.97332 4.2761,-4.36171 8.5653,-8.70789 12.8727,-13.03989 3.3635,-3.38259 6.7361,-6.75619 10.1185,-10.1206 4.3127,-4.29002 8.6397,-8.56926 12.9828,-12.82966 3.5232,-3.45601 7.0503,-6.90643 10.5931,-10.3429 4.3603,-4.22952 8.7443,-8.43317 13.1339,-12.633 3.341,-3.19642 6.679,-6.39398 10.0368,-9.57315 5.3113,-5.02891 10.6553,-10.01988 16.008,-15.00555 2.4703,-2.30088 4.9241,-4.62117 7.4031,-6.9128 7.7245,-7.14073 15.4849,-14.24769 23.2923,-21.29838 0.2703,-0.24401 0.5391,-0.48874 0.8095,-0.73277 0,-0.002 0,-0.004 0.01,-0.008 8.1087,-7.31681 16.2708,-14.58138 24.4661,-21.80066 2.3261,-2.0491 4.6735,-4.07236 7.0065,-6.11356 5.7631,-5.04238 11.5363,-10.072924 17.3406,-15.067095 3.3265,-2.862171 6.6716,-5.704936 10.0114,-8.551237 4.7435,-4.042615 9.4975,-8.070432 14.2674,-12.080932 3.7814,-3.179282 7.5719,-6.349721 11.3697,-9.508789 4.8607,-4.043357 9.736,-8.067603 14.623,-12.07771 3.1207,-2.560653 6.2439,-5.114888 9.3752,-7.661977 5.9546,-4.843784 11.9284,-9.663957 17.9205,-14.458461 2.4497,-1.960035 4.8944,-3.924558 7.3503,-5.876329 6.1496,-4.887425 12.3228,-9.73537 18.5104,-14.5708926 2.6633,-2.081288 5.3167,-4.173544 7.9869,-6.24519198 8.4849,-6.58297402 16.9965,-13.13061442 25.5496,-19.61590442 9.1388,-6.9294 18.3208,-13.79849 27.5345,-20.61583 0,-0.002 0,-0.005 0.01,-0.008 9.2111,-6.81533 18.4627,-13.57733 27.7457,-20.28007 40.3554,-29.13809 81.3718,-57.202581 122.9364,-84.186781 11.7319,-7.54146 23.5355,-14.98119 35.37824,-22.34853 0.045,-0.0282 0.088,-0.0549 0.1317,-0.0819 2.5936,-1.61322 5.2006,-3.20331 7.7993,-4.80814 0.2998,-0.18463 0.6014,-0.36435 0.901,-0.54921 8.7579,-5.40405 17.5328,-10.7685 26.3493,-16.07737 0.1152,-0.0694 0.2307,-0.13771 0.3464,-0.20751 0.1298,-0.0782 0.2581,-0.15933 0.388,-0.23745 3.3622,-2.02229 6.7342,-4.02508 10.1045,-6.0343 0.1507,-0.0898 0.2997,-0.18476 0.4504,-0.27459 8.2988,-4.94515 16.628,-9.84852 24.9769,-14.70965 0.3492,-0.20346 0.696,-0.41013 1.0452,-0.61325 3.2297,-1.8795 6.4574,-3.76365 9.6945,-5.63053 10.2858,-5.92945 20.6064,-11.78705 30.9655,-17.58917 1.6588,-0.92909 3.3037,-1.88428 4.9644,-2.81012 0.024,-0.0123 0.051,-0.0221 0.076,-0.0356 0.9495,-0.52939 1.9168,-1.04753 2.867,-1.57582 4.2728,-2.37577 8.5774,-4.69339 12.8622,-7.04804 7.5417,-4.14451 15.0643,-8.31678 22.6429,-12.39476 12.8371,-6.90755 25.7296,-13.72098 38.6711,-20.43237 0.018,-0.0115 0.035,-0.0148 0.049,-0.0223 0,-10e-4 0.01,-0.009 0.01,-0.008 0.038,-0.0198 0.074,-0.0413 0.1102,-0.0582 0,-0.001 0,-0.005 0.01,-0.008 6.7583,-3.50427 13.5693,-6.90563 20.3564,-10.35297 1.6357,-0.82588 3.2662,-1.66017 4.901,-2.48785 0.8839,-0.44688 1.7652,-0.89968 2.6473,-1.34992 3.6687,-1.85056 7.3121,-3.74914 10.9881,-5.58612 0,-0.001 0,-0.005 0.01,-0.008 0.196,-0.098 0.3897,-0.19934 0.586,-0.29738 0,-0.001 0,-0.005 0.01,-0.008 0.2379,-0.11845 0.4781,-0.22704 0.716,-0.34575 0,-0.001 0,-0.005 0.01,-0.008 12.98864,-6.4825 26.02577,-12.87373 39.10997,-19.16359 -3.6e-4,1.3e-4 -0.0872,0.024 -53.42067,19.59984 -53.4212,19.60912 -327.41024,135.08395 -534.26904,292.0041614 C -1579.2103,183.7271 -1782.316,394.72569 -1925.9799,643.93653 Z"
               style="opacity:1;fill:#63cdf7;fill-opacity:1;fill-rule:nonzero;stroke:none;stroke-width:5;stroke-linecap:round;stroke-linejoin:round;stroke-miterlimit:4;stroke-dasharray:none;stroke-dashoffset:0;stroke-opacity:1"
               inkscape:connector-curvature="0" />
            <path
               sodipodi:nodetypes="cscccssccsssscccccccccccccccscccsscsccccccccccccccccccccccccccccccccccccccccc"
               inkscape:connector-curvature="0"
               id="path4317"
               transform="matrix(3.6423844,-4.0066882,3.2053505,4.5529802,-2843.5553,1225.5062)"
               d="m 383.49414,168.4668 c -8.37927,0.30449 -16.75376,0.76617 -25.10776,1.49107 -11.73447,0.97571 -23.42727,2.43807 -35.04671,4.34326 -4.86117,0.80278 -9.71136,1.6746 -14.54308,2.63929 -14.18334,2.84671 -28.22496,6.4424 -41.96232,10.98594 -7.92219,2.61793 -15.73989,5.55858 -23.38234,8.90901 -7.59025,3.29432 -14.99712,7.0147 -22.14046,11.19218 -8.90291,5.19986 -17.38896,11.16457 -25.02214,18.10965 -7.08258,6.44657 -13.44418,13.7451 -18.4685,21.91529 -4.76899,7.77787 -8.2497,16.35417 -10.1371,25.28481 -1.99568,9.20018 -2.54915,18.78518 -0.98352,28.09486 1.32583,7.80498 4.21373,15.37033 8.65225,21.94053 4.90386,7.32121 11.60038,13.34601 19.11409,17.90172 7.59235,4.6284 15.97422,7.84424 24.54657,10.12797 9.56277,2.5478 19.3996,3.95494 29.2605,4.67002 7.0752,0.51146 14.17134,0.59496 21.2622,0.61553 14.65383,0.0857 29.30803,0.0432 43.96204,0.0575 171.25929,0.018 342.51858,0.042 513.77787,0.0421 57.57476,0.002 115.14951,0.005 172.72427,0.005 l 0,-8.66992 -734.07422,0 c -8.3902,-0.33738 -16.82135,-0.63744 -25.09961,-2.1543 -9.67507,-1.65484 -19.23269,-4.51108 -27.84637,-9.28725 -6.37356,-3.53194 -12.19728,-8.25519 -16.37922,-14.26955 -3.52815,-5.0423 -5.83612,-10.97017 -6.3966,-17.11326 -0.68412,-6.81733 0.57084,-13.73707 3.08805,-20.07902 3.22269,-8.16954 8.35208,-15.46641 14.29255,-21.88553 5.93339,-6.40139 12.70402,-11.99018 19.90028,-16.91382 9.21514,-6.28158 19.11095,-11.52398 29.32325,-15.98588 10.46884,-4.55889 21.29851,-8.24844 32.26818,-11.3986 9.60226,-2.75335 19.33042,-5.06192 29.13664,-6.96284 9.69623,-1.9205 19.4668,-3.4533 29.27414,-4.68079 7.78049,-0.96577 15.58309,-1.75709 23.40063,-2.35457 12.7709,-0.96702 25.57529,-1.51125 38.3835,-1.5358 11.66197,-0.0961 23.32767,0.12449 34.97465,0.73173 11.55193,0.58244 23.09079,1.43854 34.59695,2.62285 18.53607,1.90868 36.99508,4.6292 55.25409,8.36047 9.51835,1.94327 18.93139,4.35852 28.3469,6.74105 7.38528,1.86789 14.76577,3.76155 22.07648,5.90627 6.23392,1.8084 12.4121,3.80109 18.56697,5.86087 11.35632,3.74261 22.67363,7.60426 34.055,11.27029 7.7523,2.43771 15.55877,4.70187 23.39861,6.84023 5.34961,1.40156 10.71849,2.7567 16.16227,3.74448 5.62994,0.60096 7.88749,-3.45278 5.3464,-5.36399 -3.59753,-2.5598 -7.3808,-4.85212 -11.29629,-6.89139 -9.85751,-5.30989 -20.14254,-9.77736 -30.54127,-13.90905 -10.57385,-4.25917 -21.20429,-8.38306 -31.66865,-12.90861 -10.208,-4.369 -20.41776,-8.73449 -30.65066,-13.04466 -11.27016,-4.606 -22.72775,-8.75745 -34.35526,-12.36985 -9.0745,-2.87084 -18.26488,-5.36251 -27.50688,-7.63193 -8.84891,-2.16507 -17.76047,-4.06942 -26.70877,-5.77615 -10.67346,-2.06984 -21.40994,-3.8043 -32.17547,-5.31978 -5.55112,-0.78284 -11.11283,-1.4933 -16.69058,-2.05881 -5.53926,-0.56238 -11.08974,-1.01728 -16.64938,-1.32304 -7.70469,-0.44308 -15.4203,-0.67454 -23.13723,-0.73871 -3.4141,-0.014 -6.8293,-0.0635 -10.24286,-0.005 z M 695.625,254.82617 c -1.8151,0.34766 -3.11856,1.80377 -4.20806,3.19019 -0.91514,1.16321 -1.75147,2.56516 -1.65787,4.09739 0.0897,1.13275 0.87388,2.12012 1.86649,2.629 1.56357,0.88001 3.2626,1.49186 4.94416,2.10581 1.25289,0.45918 2.53576,0.83242 3.85601,1.03897 3.04419,0.50016 6.07362,1.10124 9.13482,1.49138 0.93593,0.13192 1.98409,0.17651 2.78998,-0.40524 1.13995,-0.75079 1.32904,-2.38075 0.772,-3.54883 -0.7687,-1.59709 -2.2613,-2.68896 -3.72957,-3.60392 -2.37925,-1.47748 -4.99794,-2.53923 -7.32158,-4.11284 -1.73166,-1.04896 -3.40243,-2.32157 -5.3995,-2.81355 -0.34511,-0.0655 -0.69606,-0.0953 -1.04688,-0.0684 z m 29.87109,13.17578 c -1.09399,0.11766 -2.05125,0.70064 -3.00976,1.19336 -2.29994,1.69496 -2.96898,5.29887 -1.23828,7.6211 1.78128,2.55714 5.64341,3.33071 8.25898,1.62454 1.96902,-1.19157 3.17167,-3.66642 2.59565,-5.9411 -0.4899,-2.23176 -2.43952,-4.06327 -4.70847,-4.37885 -0.62277,-0.13202 -1.26442,-0.13273 -1.89812,-0.11905 z"
               style="opacity:1;fill:#63cdf7;fill-opacity:1;fill-rule:nonzero;stroke:none;stroke-width:5;stroke-linecap:round;stroke-linejoin:round;stroke-miterlimit:4;stroke-dasharray:none;stroke-dashoffset:0;stroke-opacity:1" />
          </g>
          <g
             id="text3373"
             style="font-style:normal;font-variant:normal;font-weight:500;font-stretch:normal;font-size:44.32928848px;line-height:125%;font-family:Artifika;-inkscape-font-specification:'Artifika Medium';text-align:end;letter-spacing:0px;word-spacing:0px;writing-mode:lr-tb;text-anchor:end;fill:#000000;fill-opacity:1;stroke:none;stroke-width:1px;stroke-linecap:butt;stroke-linejoin:miter;stroke-opacity:1"
             inkscape:transform-center-y="-33.50381"
             inkscape:transform-center-x="383.3658"
             transform="matrix(0.99998255,0.00590763,-0.00590763,0.99998255,0,0)">
            <path
               id="path4758"
               style="font-size:88.65857697px;fill:#000000"
               d="m 276.7406,826.10201 q -4.06929,0 -7.70568,0.30303 -3.5931,0.30303 -6.58013,0.69265 -2.94374,0.38961 -5.15155,0.77922 -2.16451,0.34633 -3.33335,0.51949 0,-0.0433 -0.12987,-0.56278 -0.0866,-0.51948 -0.25974,-1.342 -0.17316,-0.82251 -0.30304,-1.73161 -0.12987,-0.95239 -0.12987,-1.64503 0,-1.42858 1.25542,-2.07794 1.29871,-0.69264 3.50652,-0.90909 2.20781,-0.25975 5.15155,-0.17317 2.94374,0.0433 6.32038,0.0433 l 12.68407,0 q 1.99135,0 4.8918,0 2.90046,0 6.45026,-0.12987 3.5931,-0.12987 7.66239,-0.4329 4.11258,-0.30303 8.39832,-0.86581 l 0,0 q 0,0.0433 0.12987,0.4762 0.12987,0.38961 0.25974,1.08226 0.12987,0.64935 0.25975,1.51516 0.12987,0.82251 0.12987,1.73161 0,1.08226 -0.77923,1.68832 -0.73593,0.60607 -1.99135,0.9091 -1.25542,0.25974 -2.90046,0.34632 -1.60174,0.0433 -3.37664,0.0433 -4.9351,0 -8.35503,-0.0866 -3.41994,-0.0866 -5.88749,-0.17316 l 0,41.42884 q 0,2.77058 0.12988,4.8918 0.17316,2.12123 0.38961,3.72297 0.21645,1.55845 0.4329,2.64071 0.21645,1.03897 0.34632,1.68832 -0.64935,0.34632 -1.42858,0.64936 -0.77922,0.25974 -1.64503,0.4329 -0.82252,0.21645 -1.64503,0.30303 -0.82252,0.0866 -1.55845,0.0866 -1.12555,0 -2.12123,-0.21645 -0.95239,-0.21645 -1.64503,-0.69264 -0.69265,-0.51949 -1.08226,-1.342 -0.38961,-0.82252 -0.38961,-2.07794 l 0,-51.51548 z" />
            <path
               id="path4760"
               style="font-size:88.65857697px;fill:#000000"
               d="m 307.86634,838.00685 q 0.90909,-0.38962 2.55413,-0.73594 1.64503,-0.34632 3.59309,-0.56277 1.99136,-0.21645 4.026,-0.34632 2.07794,-0.12988 3.76626,-0.12988 0.9091,0 1.60174,0.0433 0.69265,0.0433 1.16884,0.25975 0.4762,0.21645 0.69265,0.69264 0.25974,0.4329 0.25974,1.29871 l 0,10.38968 5.49787,-7.83555 q 2.07793,-2.85716 4.58877,-4.19916 2.55413,-1.38529 5.75762,-1.38529 0.56277,0 1.42858,0.0866 0.90909,0.0433 1.73161,0.30303 0.86581,0.25974 1.47187,0.73594 0.60606,0.47619 0.60606,1.29871 0,0.21645 0,0.34632 0,0.12987 -0.0866,0.34632 l -1.86148,6.10394 q -1.64503,-0.51949 -2.98703,-0.73594 -1.29871,-0.21645 -2.42426,-0.21645 -2.33768,0 -4.4589,1.342 -2.12123,1.29871 -3.89613,3.1169 -1.7749,1.77491 -3.1602,3.63639 -1.34199,1.81819 -2.2078,2.81387 l 0,13.46329 q 0,2.684 0.12987,4.71865 0.12987,2.03464 0.30303,3.5498 0.21645,1.51516 0.43291,2.55413 0.21645,0.99568 0.34632,1.60174 -0.60607,0.34633 -1.38529,0.60607 -0.73594,0.21645 -1.60174,0.38961 -0.82252,0.21645 -1.68833,0.30303 -0.82251,0.0866 -1.51516,0.0866 -1.12555,0 -2.03464,-0.21645 -0.9091,-0.17316 -1.60175,-0.64935 -0.69264,-0.4762 -1.08225,-1.25542 -0.34633,-0.82252 -0.34633,-2.03465 l 0,-36.53703 -7.61909,0 0,-3.24677 0,0 z" />
            <path
               id="path4762"
               style="font-size:88.65857697px;fill:#000000"
               d="m 381.54646,877.35775 q 0,0 -0.60606,0.38961 -0.56278,0.34632 -1.60174,0.9091 -0.99568,0.56277 -2.38097,1.25542 -1.342,0.64935 -2.98703,1.25542 -1.60175,0.56277 -3.37665,0.95238 -1.73161,0.38962 -3.50652,0.38962 -2.81387,0 -5.368,-0.77923 -2.55412,-0.73593 -4.50219,-2.33768 -1.90477,-1.60174 -3.07361,-4.026 -1.12555,-2.42425 -1.12555,-5.8009 0,-3.72297 1.64503,-6.32039 1.68833,-2.59741 4.63207,-4.19916 2.98703,-1.64503 7.09961,-2.33767 4.11258,-0.73594 9.04768,-0.73594 l 6.10393,0 0,-3.24677 q 0,-2.51084 -0.21645,-4.80523 -0.17316,-2.33768 -0.9091,-4.06929 -0.69264,-1.73161 -2.07793,-2.77058 -1.342,-1.03897 -3.63639,-1.03897 -2.20781,0 -4.41561,0.82252 -2.20781,0.77922 -4.32903,1.99135 -2.12123,1.21213 -4.06929,2.684 -1.94807,1.42858 -3.54981,2.72729 l -3.54981,-4.76193 q -0.64935,-0.77923 -0.64935,-1.60174 0,-1.42858 1.7749,-2.59742 1.8182,-1.16884 4.5022,-1.99136 2.72729,-0.8658 5.84419,-1.342 3.1169,-0.47619 5.8009,-0.47619 3.98271,0 7.53252,0.95239 3.5498,0.95238 6.19051,3.03032 2.684,2.03464 4.24245,5.32471 1.55846,3.24677 1.55846,7.92213 l 0,24.11271 7.53251,0 0,3.24677 q -0.73593,0.38961 -2.03464,0.73593 -1.25542,0.34633 -2.81387,0.60607 -1.55846,0.25974 -3.29007,0.38961 -1.68832,0.12987 -3.24677,0.12987 -1.03897,0 -2.12123,-0.12987 -1.08226,-0.12987 -1.99135,-0.60606 -0.86581,-0.43291 -1.47187,-1.21213 -0.56278,-0.82252 -0.60607,-2.20781 l 0,-0.4329 z m -11.42864,-1.25542 q 1.51516,0 3.46322,-0.38961 1.99136,-0.43291 3.76626,-0.9091 2.07794,-0.56277 4.19916,-1.342 l 0,-12.16458 -7.27277,0 q -1.64503,0 -3.63639,0.30303 -1.94806,0.30303 -3.67968,1.16884 -1.68832,0.82252 -2.85716,2.33768 -1.16884,1.51516 -1.16884,3.98271 0,1.55845 0.4762,2.85716 0.47619,1.25542 1.38529,2.20781 0.90909,0.90909 2.25109,1.42858 1.342,0.51948 3.07362,0.51948 z" />
            <path
               id="path4764"
               style="font-size:88.65857697px;fill:#000000"
               d="m 411.07046,841.16704 -7.6191,0 0,-3.24677 q 0.9091,-0.38962 2.55413,-0.73594 1.64503,-0.34632 3.5931,-0.56277 1.99135,-0.21645 4.026,-0.34633 2.07793,-0.12987 3.76626,-0.12987 0.90909,0 1.60174,0.0433 0.69264,0.0433 1.16884,0.25975 0.47619,0.21645 0.69264,0.69264 0.25974,0.4329 0.25974,1.29871 l 0,2.12123 q 0.64936,-0.21646 2.38097,-1.03897 1.77491,-0.82252 4.28574,-1.68832 2.51084,-0.9091 5.49787,-1.60175 2.98704,-0.73593 6.10394,-0.73593 3.76626,0 6.10393,1.03897 2.33768,1.03896 3.63639,2.90045 1.29871,1.81819 1.73161,4.32903 0.4762,2.51084 0.4762,5.49787 l 0,27.57594 7.53251,0 0,3.24677 q -0.73593,0.38961 -2.03464,0.73593 -1.25542,0.34633 -2.81387,0.60607 -1.55845,0.25974 -3.24678,0.38961 -1.68832,0.12987 -3.24677,0.12987 -1.342,0 -2.46755,-0.17316 -1.12555,-0.12987 -1.94806,-0.60606 -0.82252,-0.43291 -1.29871,-1.21213 -0.4762,-0.82252 -0.4762,-2.16452 l 0,-27.66251 q 0,-2.20781 -0.25974,-3.76626 -0.21645,-1.55845 -0.90909,-2.55413 -0.64936,-0.99568 -1.86149,-1.42858 -1.16884,-0.47619 -3.03032,-0.47619 -1.21213,0 -2.684,0.17316 -1.42858,0.17316 -2.98703,0.47619 -1.51516,0.25974 -2.98703,0.56278 -1.42859,0.30303 -2.64071,0.60606 -1.16884,0.25974 -1.94807,0.47619 -0.77922,0.21646 -0.9091,0.25975 l 0,23.6798 q 0,2.684 0.12988,4.71865 0.12987,2.03464 0.30303,3.5498 0.21645,1.51516 0.4329,2.55413 0.21645,0.99568 0.34632,1.60174 -0.60606,0.34633 -1.38529,0.60607 -0.73593,0.21645 -1.60174,0.38961 -0.82251,0.21645 -1.68832,0.30303 -0.82252,0.0866 -1.51516,0.0866 -1.12555,0 -2.03465,-0.21645 -0.90909,-0.17316 -1.60174,-0.64935 -0.69264,-0.4762 -1.08226,-1.25542 -0.34632,-0.82252 -0.34632,-2.03465 l 0,-36.62361 z" />
            <path
               id="path4766"
               style="font-size:88.65857697px;fill:#000000"
               d="m 470.07517,870.69104 q 1.16883,0.86581 2.81387,2.07794 1.68832,1.21212 3.67967,2.33767 1.99136,1.08226 4.19916,1.90478 2.2511,0.77922 4.54549,0.77922 1.42858,0 2.72729,-0.38961 1.342,-0.4329 2.38097,-1.25542 1.03896,-0.82252 1.64503,-1.99135 0.60606,-1.21213 0.60606,-2.72729 0,-1.77491 -1.16884,-3.11691 -1.12554,-1.342 -2.81387,-2.38097 -1.64503,-1.03896 -3.5498,-1.81819 -1.90478,-0.82252 -3.37665,-1.47187 -2.55413,-1.12555 -5.10826,-2.33768 -2.51083,-1.21213 -4.54548,-2.85716 -1.99135,-1.68832 -3.29006,-3.98271 -1.25542,-2.29438 -1.25542,-5.62774 0,-3.33335 1.64503,-5.67103 1.68832,-2.33768 4.32903,-3.80955 2.684,-1.51516 5.97406,-2.16452 3.29007,-0.69264 6.49355,-0.69264 1.99136,0 4.19916,0.17316 2.2511,0.17316 4.11258,0.60606 1.90478,0.38962 3.11691,1.03897 1.25542,0.64936 1.25542,1.55845 0,0.34633 -0.25974,0.9091 l -2.94375,5.67103 q -0.82251,-0.51948 -2.25109,-1.342 -1.38529,-0.8658 -3.1602,-1.64503 -1.7749,-0.77923 -3.80954,-1.342 -1.99136,-0.56277 -4.0693,-0.56277 -2.98703,0 -4.8918,1.38529 -1.90478,1.38529 -1.90478,3.93942 0,1.99135 1.12555,3.46322 1.12555,1.47187 2.94374,2.64071 1.86149,1.12555 4.19917,2.07794 2.38096,0.90909 4.84851,1.90477 2.46755,0.99568 4.80523,2.12123 2.38096,1.12554 4.19916,2.64071 1.86148,1.47187 2.98703,3.46322 1.12555,1.94807 1.12555,4.63207 0,3.80954 -1.64503,6.40696 -1.64504,2.59742 -4.28575,4.24245 -2.59741,1.60175 -5.84419,2.29439 -3.20348,0.73594 -6.32039,0.73594 -2.684,0 -5.71432,-0.60607 -3.03032,-0.56277 -5.58445,-1.42858 -2.55413,-0.90909 -4.24245,-1.94806 -1.64503,-1.03897 -1.64503,-1.94807 0,-0.56277 0.25974,-1.08225 l 3.46323,-4.80523 0,0 z" />
            <path
               id="path4768"
               style="font-size:88.65857697px;fill:#000000"
               d="m 562.62987,819.17556 q 5.10826,0 9.30742,0.90909 4.24245,0.86581 7.27277,2.90046 3.03033,2.03464 4.67536,5.368 1.64503,3.33335 1.64503,8.22516 0,1.08225 -0.25974,2.42425 -0.21645,1.342 -0.77923,2.77059 -0.56277,1.42858 -1.47187,2.81387 -0.8658,1.342 -2.16451,2.51083 -1.29871,1.16884 -3.07362,1.99136 -1.73161,0.82252 -3.98271,1.12555 3.67968,0.38961 6.19052,1.60174 2.55413,1.21213 4.11258,3.1169 1.60174,1.90478 2.29439,4.37233 0.73593,2.46754 0.73593,5.368 0,5.15154 -2.03464,8.52819 -1.99136,3.33335 -5.54116,5.28142 -3.54981,1.94806 -8.35503,2.684 -4.76194,0.77922 -10.25981,0.77922 -4.41561,0 -8.26845,-0.21645 -3.80955,-0.17316 -7.83555,-0.64935 -1.94806,-0.21645 -2.684,-1.03897 -0.69265,-0.82252 -0.69265,-2.684 l 0,-51.25574 -8.35503,0.64935 0,-3.85283 q 1.99136,-0.82252 5.19484,-1.47188 3.24678,-0.69264 7.18619,-1.16883 3.98271,-0.51949 8.35504,-0.77923 4.41561,-0.25974 8.78793,-0.30303 z m 1.42858,34.32922 q -1.342,-0.0866 -2.59742,-0.0866 -1.25542,0 -2.46755,0 -1.51516,0 -2.81387,0.0433 -1.25542,0 -2.2078,0.0433 -1.12555,0.0433 -2.03465,0.0866 l 0,21.38542 q 1.16884,0.38961 2.72729,0.69265 1.342,0.25974 3.24678,0.47619 1.90477,0.21645 4.37232,0.21645 4.58877,0 7.44593,-0.99568 2.85717,-1.03896 4.41562,-2.64071 1.60174,-1.60174 2.12122,-3.5498 0.56278,-1.94807 0.56278,-3.80955 0,-2.55413 -0.69265,-4.63206 -0.64935,-2.12123 -2.16451,-3.63639 -1.47188,-1.55845 -3.93942,-2.46755 -2.42426,-0.9091 -5.97407,-1.12555 z m -1.51516,-28.35516 q -2.2511,0 -4.19916,0.0866 -1.94806,0.0433 -3.37665,0.12987 -1.42858,0.0866 -2.25109,0.17317 -0.77923,0.0866 -0.77923,0.12987 l 0,21.73174 q 2.07794,0.38961 3.72297,0.56277 1.68832,0.12987 3.07361,0.12987 4.67536,0 7.87884,-0.90909 3.20348,-0.95239 5.19484,-2.55413 1.99135,-1.60175 2.85716,-3.72297 0.9091,-2.12123 0.9091,-4.50219 0,-2.59742 -0.73594,-4.67536 -0.73593,-2.07793 -2.29438,-3.50651 -1.55846,-1.47188 -4.026,-2.2511 -2.46755,-0.77923 -5.97407,-0.82252 z" />
            <path
               id="path4770"
               style="font-size:88.65857697px;fill:#000000"
               d="m 626.56968,877.35775 q 0,0 -0.60607,0.38961 -0.56277,0.34632 -1.60174,0.9091 -0.99568,0.56277 -2.38097,1.25542 -1.342,0.64935 -2.98703,1.25542 -1.60174,0.56277 -3.37664,0.95238 -1.73162,0.38962 -3.50652,0.38962 -2.81387,0 -5.368,-0.77923 -2.55413,-0.73593 -4.50219,-2.33768 -1.90478,-1.60174 -3.07361,-4.026 -1.12555,-2.42425 -1.12555,-5.8009 0,-3.72297 1.64503,-6.32039 1.68832,-2.59741 4.63206,-4.19916 2.98704,-1.64503 7.09962,-2.33767 4.11258,-0.73594 9.04767,-0.73594 l 6.10394,0 0,-3.24677 q 0,-2.51084 -0.21645,-4.80523 -0.17316,-2.33768 -0.9091,-4.06929 -0.69265,-1.73161 -2.07794,-2.77058 -1.342,-1.03897 -3.63638,-1.03897 -2.20781,0 -4.41562,0.82252 -2.2078,0.77922 -4.32903,1.99135 -2.12122,1.21213 -4.06929,2.684 -1.94806,1.42858 -3.5498,2.72729 l -3.54981,-4.76193 q -0.64935,-0.77923 -0.64935,-1.60174 0,-1.42858 1.7749,-2.59742 1.81819,-1.16884 4.50219,-1.99136 2.72729,-0.8658 5.84419,-1.342 3.11691,-0.47619 5.80091,-0.47619 3.98271,0 7.53251,0.95239 3.54981,0.95238 6.19052,3.03032 2.684,2.03464 4.24245,5.32471 1.55845,3.24677 1.55845,7.92213 l 0,24.11271 7.53252,0 0,3.24677 q -0.73594,0.38961 -2.03465,0.73593 -1.25542,0.34633 -2.81387,0.60607 -1.55845,0.25974 -3.29006,0.38961 -1.68832,0.12987 -3.24678,0.12987 -1.03896,0 -2.12122,-0.12987 -1.08226,-0.12987 -1.99136,-0.60606 -0.8658,-0.43291 -1.47187,-1.21213 -0.56277,-0.82252 -0.60606,-2.20781 l 0,-0.4329 z m -11.42865,-1.25542 q 1.51516,0 3.46323,-0.38961 1.99135,-0.43291 3.76626,-0.9091 2.07793,-0.56277 4.19916,-1.342 l 0,-12.16458 -7.27278,0 q -1.64503,0 -3.63638,0.30303 -1.94807,0.30303 -3.67968,1.16884 -1.68832,0.82252 -2.85716,2.33768 -1.16884,1.51516 -1.16884,3.98271 0,1.55845 0.47619,2.85716 0.4762,1.25542 1.38529,2.20781 0.9091,0.90909 2.2511,1.42858 1.342,0.51948 3.07361,0.51948 z" />
            <path
               id="path4772"
               style="font-size:88.65857697px;fill:#000000"
               d="m 664.66515,876.83827 7.53252,0 0,3.24677 q -0.73594,0.38961 -2.03465,0.73593 -1.25542,0.34633 -2.81387,0.60607 -1.55845,0.25974 -3.24677,0.38961 -1.68832,0.12987 -3.24678,0.12987 -1.342,0 -2.46754,-0.17316 -1.12555,-0.12987 -1.94807,-0.60606 -0.82251,-0.43291 -1.29871,-1.21213 -0.47619,-0.82252 -0.47619,-2.16452 l 0,-58.05232 -7.66239,0 0,-3.29006 q 0.9091,-0.38962 2.55413,-0.73594 1.68832,-0.34632 3.63639,-0.56277 1.94806,-0.21645 3.98271,-0.34632 2.07793,-0.12988 3.76625,-0.12988 0.9091,0 1.60175,0.0433 0.69264,0.0433 1.16884,0.25975 0.47619,0.21645 0.69264,0.69264 0.25974,0.43291 0.25974,1.29871 l 0,59.87052 z" />
            <path
               id="path4774"
               style="font-size:88.65857697px;fill:#000000"
               d="m 710.98582,836.83801 0,1.86148 q 0,1.94807 -0.86581,2.72729 -0.82252,0.73594 -2.684,0.73594 l -11.51523,0 0,25.36813 q 0,4.84851 1.77491,7.35935 1.7749,2.46755 5.41129,2.46755 1.60174,0 3.29006,-0.38961 1.68832,-0.38962 3.03032,-0.82252 1.342,-0.4329 2.16452,-0.73594 0.86581,-0.34632 0.82252,-0.25974 l 1.38529,2.98703 q -1.51516,0.95239 -3.03033,1.77491 -1.51516,0.77922 -3.20348,1.342 -1.68832,0.60606 -3.63639,0.90909 -1.94806,0.34633 -4.37232,0.34633 -3.16019,0 -5.71432,-0.99568 -2.51084,-0.95239 -4.28574,-2.77058 -1.77491,-1.81819 -2.72729,-4.4589 -0.95239,-2.64071 -0.95239,-5.97407 l 0,-26.14735 -8.9611,0 0,-1.94807 q 0,-1.94806 0.82252,-2.64071 0.86581,-0.73593 2.72729,-0.73593 l 5.41129,0 0,-10.3031 q 0,-1.16884 0.34632,-1.94806 0.38962,-0.82252 1.08226,-1.25542 0.69265,-0.47619 1.60174,-0.64936 0.9091,-0.21645 2.03465,-0.21645 0.69264,0 1.51516,0.0866 0.86581,0.0866 1.68832,0.25974 0.86581,0.12988 1.60174,0.38962 0.77923,0.25974 1.38529,0.60606 -0.12987,0.60607 -0.34632,1.64503 -0.21645,0.99568 -0.4329,2.55413 -0.17316,1.55845 -0.30303,3.76626 -0.12988,2.16452 -0.12988,5.06497 l 15.06504,0 z" />
            <path
               id="path4778"
               style="font-size:88.65857697px;fill:#000000"
               d="m 795.70496,868.13691 q 0,2.684 0.12987,4.71865 0.17316,2.03464 0.34632,3.5498 0.21645,1.51516 0.43291,2.55413 0.21645,0.99568 0.34632,1.60174 -0.60607,0.34633 -1.38529,0.60607 -0.77923,0.21645 -1.64503,0.38961 -0.82252,0.21645 -1.64504,0.30303 -0.82251,0.0866 -1.51516,0.0866 -1.12555,0 -2.03464,-0.21645 -0.9091,-0.17316 -1.60175,-0.64935 -0.69264,-0.4762 -1.08225,-1.25542 -0.34633,-0.82252 -0.34633,-2.03465 l 0,-28.26858 q 0,-1.7749 -0.12987,-3.16019 -0.12987,-1.38529 -0.64935,-2.33768 -0.47619,-0.99568 -1.51516,-1.51516 -0.99568,-0.51948 -2.77058,-0.51948 -1.16884,0 -2.64071,0.17316 -1.47187,0.17316 -2.98703,0.47619 -1.51517,0.25974 -2.94375,0.60607 -1.42858,0.30303 -2.55413,0.60606 -1.12554,0.25974 -1.81819,0.4329 -0.64935,0.17317 -0.60606,0.17317 l 0,23.6798 q 0,2.684 0.12987,4.71865 0.12987,2.03464 0.30303,3.5498 0.21645,1.51516 0.4329,2.55413 0.21645,0.99568 0.34633,1.60174 -0.60607,0.34633 -1.38529,0.60607 -0.73594,0.21645 -1.60175,0.38961 -0.82251,0.21645 -1.68832,0.30303 -0.82252,0.0866 -1.51516,0.0866 -1.12555,0 -2.03465,-0.21645 -0.90909,-0.17316 -1.60174,-0.64935 -0.69264,-0.4762 -1.08226,-1.25542 -0.34632,-0.82252 -0.34632,-2.03465 l 0,-36.62361 -7.61909,0 0,-3.24677 q 0.90909,-0.38962 2.55412,-0.73594 1.64504,-0.34632 3.5931,-0.56277 1.99136,-0.21645 4.026,-0.34633 2.07794,-0.12987 3.76626,-0.12987 0.9091,0 1.60174,0.0433 0.69265,0.0433 1.16884,0.25975 0.47619,0.21645 0.69264,0.69264 0.25975,0.4329 0.25975,1.29871 l 0,2.12123 q 0,0.0433 0.73593,-0.30304 0.77923,-0.38961 2.07794,-0.95238 1.342,-0.56278 3.07361,-1.21213 1.7749,-0.64936 3.72297,-1.21213 1.99135,-0.60607 4.06929,-0.99568 2.12122,-0.38961 4.11258,-0.38961 1.51516,0 2.98703,0.25974 1.47187,0.21645 2.72729,0.77923 1.29871,0.56277 2.29439,1.55845 1.03897,0.99568 1.60174,2.46755 0,0.0433 0.77923,-0.30304 0.77922,-0.38961 2.12122,-0.95238 1.342,-0.56278 3.1169,-1.21213 1.77491,-0.64936 3.76626,-1.21213 2.03465,-0.60607 4.11258,-0.99568 2.12123,-0.38961 4.15587,-0.38961 3.80955,0 6.14723,0.99568 2.33768,0.95238 3.5931,2.72729 1.25541,1.7749 1.64503,4.24245 0.4329,2.46755 0.4329,5.45458 l 0,27.92226 7.53252,0 0,3.24677 q -0.73594,0.38961 -2.03465,0.73593 -1.25542,0.34633 -2.81387,0.60607 -1.55845,0.25974 -3.24677,0.38961 -1.68833,0.12987 -3.24678,0.12987 -1.342,0 -2.46755,-0.17316 -1.12554,-0.12987 -1.99135,-0.60606 -0.82252,-0.43291 -1.29871,-1.21213 -0.47619,-0.82252 -0.47619,-2.16452 l 0,-28.26858 q 0,-1.7749 -0.12987,-3.16019 -0.12988,-1.38529 -0.64936,-2.33768 -0.47619,-0.99568 -1.51516,-1.51516 -0.99568,-0.51948 -2.72729,-0.51948 -1.12555,0 -3.07361,0.30303 -1.94807,0.25974 -4.06929,0.64935 -2.07794,0.34633 -3.93942,0.73594 -1.86149,0.38961 -2.77058,0.60606 0.25974,2.16452 0.25974,4.63207 l 0,19.2209 z" />
            <path
               id="path4780"
               style="font-size:88.65857697px;fill:#000000"
               d="m 887.35054,859.08923 q 0,5.28142 -1.86148,9.61045 -1.81819,4.32904 -5.06497,7.40265 -3.20348,3.07361 -7.53251,4.76194 -4.32904,1.64503 -9.26413,1.64503 -5.02168,0 -9.394,-1.68833 -4.32903,-1.68832 -7.53252,-4.76193 -3.20348,-3.07361 -5.06497,-7.35936 -1.86148,-4.32903 -1.86148,-9.61045 0,-5.32471 1.86148,-9.65374 1.86149,-4.37232 5.06497,-7.44593 3.20349,-3.11691 7.53252,-4.80523 4.37232,-1.68832 9.394,-1.68832 4.97838,0 9.30742,1.68832 4.32903,1.68832 7.53251,4.80523 3.20349,3.07361 5.02168,7.44593 1.86148,4.32903 1.86148,9.65374 z m -36.88335,-0.0866 q 0,3.67968 0.56277,7.09962 0.56278,3.41993 2.03465,6.06064 1.51516,2.59742 4.026,4.15587 2.55413,1.55845 6.53684,1.55845 3.93942,0 6.45026,-1.55845 2.55412,-1.55845 3.9827,-4.15587 1.47188,-2.64071 2.03465,-6.06064 0.56277,-3.41994 0.56277,-7.09962 0,-3.67967 -0.56277,-7.09961 -0.56277,-3.41993 -2.03465,-6.01735 -1.42858,-2.64071 -3.9827,-4.19917 -2.51084,-1.55845 -6.45026,-1.55845 -3.98271,0 -6.53684,1.55845 -2.51084,1.55846 -4.026,4.19917 -1.47187,2.59742 -2.03465,6.01735 -0.56277,3.41994 -0.56277,7.09961 z" />
            <path
               id="path4782"
               style="font-size:88.65857697px;fill:#000000"
               d="m 895.22939,838.00685 q 0.9091,-0.38962 2.55413,-0.73594 1.64504,-0.34632 3.5931,-0.56277 1.99135,-0.21645 4.026,-0.34632 2.07793,-0.12988 3.76626,-0.12988 0.90909,0 1.60174,0.0433 0.69264,0.0433 1.16884,0.25975 0.47619,0.21645 0.69264,0.69264 0.25974,0.4329 0.25974,1.29871 l 0,10.38968 5.49788,-7.83555 q 2.07793,-2.85716 4.58877,-4.19916 2.55413,-1.38529 5.75761,-1.38529 0.56278,0 1.42858,0.0866 0.9091,0.0433 1.73162,0.30303 0.8658,0.25974 1.47187,0.73594 0.60606,0.47619 0.60606,1.29871 0,0.21645 0,0.34632 0,0.12987 -0.0866,0.34632 l -1.86148,6.10394 q -1.64504,-0.51949 -2.98704,-0.73594 -1.29871,-0.21645 -2.42425,-0.21645 -2.33768,0 -4.45891,1.342 -2.12122,1.29871 -3.89613,3.1169 -1.7749,1.77491 -3.16019,3.63639 -1.342,1.81819 -2.20781,2.81387 l 0,13.46329 q 0,2.684 0.12988,4.71865 0.12987,2.03464 0.30303,3.5498 0.21645,1.51516 0.4329,2.55413 0.21645,0.99568 0.34632,1.60174 -0.60606,0.34633 -1.38529,0.60607 -0.73593,0.21645 -1.60174,0.38961 -0.82251,0.21645 -1.68832,0.30303 -0.82252,0.0866 -1.51516,0.0866 -1.12555,0 -2.03465,-0.21645 -0.90909,-0.17316 -1.60174,-0.64935 -0.69264,-0.4762 -1.08226,-1.25542 -0.34632,-0.82252 -0.34632,-2.03465 l 0,-36.53703 -7.6191,0 0,-3.24677 0,0 z" />
            <path
               id="path4784"
               style="font-size:88.65857697px;fill:#000000"
               d="m 972.3295,855.88575 q 0.25974,-0.86581 0.34632,-1.73161 0.0866,-0.86581 0.0866,-1.8182 0,-2.12122 -0.73593,-4.24245 -0.69265,-2.16451 -2.07794,-3.89613 -1.342,-1.73161 -3.37664,-2.81387 -1.99136,-1.08226 -4.58878,-1.08226 -3.33335,0 -5.58445,1.29871 -2.2078,1.25542 -3.63638,3.41994 -1.38529,2.12123 -2.03465,4.97839 -0.64935,2.81387 -0.82251,5.88748 l 22.42438,0 z m -32.51103,3.1169 q 0,-5.15155 1.64503,-9.43729 1.68833,-4.32903 4.80523,-7.44593 3.16019,-3.11691 7.70568,-4.84852 4.54548,-1.7749 10.30309,-1.7749 4.32903,0 7.74897,1.38529 3.41993,1.38529 5.8009,3.72297 2.38097,2.33767 3.63639,5.41129 1.25542,3.07361 1.25542,6.40696 0,1.55846 -0.25974,3.11691 -0.25975,1.55845 -0.99568,2.81387 -0.73594,1.25542 -2.07794,2.07793 -1.342,0.77923 -3.50651,0.77923 l -25.88761,0 q 0.4329,3.89613 2.03464,6.88316 1.60174,2.98703 4.11258,5.06497 2.51084,2.03464 5.8009,3.07361 3.29007,1.03897 7.09962,1.03897 2.59742,0 5.368,-0.4329 2.77058,-0.4762 5.71432,-1.42859 l 1.42858,2.90046 q -1.7749,1.21213 -3.80955,2.07793 -2.03464,0.86581 -4.19916,1.38529 -2.16452,0.56278 -4.41561,0.82252 -2.2511,0.25974 -4.41562,0.25974 -4.76193,0 -9.26412,-1.51516 -4.45891,-1.47187 -7.96542,-4.4589 -3.46323,-2.98704 -5.58445,-7.44594 -2.07794,-4.4589 -2.07794,-10.43297 z" />
            <path
               id="path4786"
               style="font-size:88.65857697px;fill:#000000"
               d="m 1000.4249,870.77762 q 1.4286,0 2.5974,0.47619 1.2121,0.4762 2.0346,1.29871 0.8658,0.77923 1.342,1.90478 0.4762,1.08226 0.4762,2.29438 0,1.29871 -0.4762,2.42426 -0.4762,1.08226 -1.342,1.90478 -0.8225,0.82251 -2.0346,1.29871 -1.1688,0.47619 -2.5974,0.47619 -1.38531,0 -2.55415,-0.47619 -1.16884,-0.4762 -2.03465,-1.29871 -0.82251,-0.82252 -1.29871,-1.90478 -0.4329,-1.12555 -0.4329,-2.42426 0,-1.21212 0.4329,-2.29438 0.4762,-1.12555 1.29871,-1.90478 0.86581,-0.82251 2.03465,-1.29871 1.16884,-0.47619 2.55415,-0.47619 z" />
          </g>
          <path
             sodipodi:nodetypes="ccccccccsccccccccscsccccccscssssccsccsccsssccssssscscccccccccccccccccccccsccccccccccccccccccc"
             id="path4303"
             d="m 297.50391,611.87975 c -2.2637,-0.0154 -4.52193,-0.0139 -6.77735,0.004 -275.686231,-4.56086 -318.197029,297.53852 -105.90599,319.96097 22.64436,2.64773 42.89416,1.82495 81.10521,3.32223 l 734.07422,0 0,-8.66992 -540.73047,0 -193.34375,0 c -34.02326,-0.332 -56.79281,-1.5425 -73.22266,-3.59961 -2.73833,-0.34284 -5.30008,-0.70993 -7.70898,-1.09961 -3.61406,-0.58469 -6.88225,-1.22085 -9.88281,-1.91016 -1.00003,-0.2297 -1.96885,-0.46579 -2.91211,-0.70703 -2.83044,-0.72395 -5.41808,-1.49897 -7.83984,-2.32617 -0.8071,-0.27565 -1.59411,-0.55671 -2.36719,-0.84375 -2.31982,-0.86137 -4.49923,-1.77307 -6.61524,-2.73633 -0.70463,-0.32075 -1.40231,-0.6485 -2.0957,-0.98047 -5.2e-4,-2.5e-4 -0.001,2.5e-4 -0.002,0 -1.38783,-0.66446 -2.75785,-1.35135 -4.13477,-2.06055 -1.37738,-0.70945 -2.75986,-1.43944 -4.17186,-2.19336 -1.41151,-0.75363 -2.8502,-1.53036 -4.3418,-2.32812 -2.66877,-1.42735 -5.23761,-2.943 -7.70703,-4.53906 -4.6e-4,-3e-4 -0.002,2.9e-4 -0.002,0 -0.82283,-0.53184 -1.63463,-1.07345 -2.43555,-1.62305 -4.4e-4,-3e-4 -0.002,3e-4 -0.002,0 -0.80092,-0.54961 -1.59003,-1.10889 -2.36915,-1.67578 -4.2e-4,-3.1e-4 -0.002,3.1e-4 -0.002,0 -0.77953,-0.56721 -1.54686,-1.14254 -2.30469,-1.72656 -0.75823,-0.58433 -1.50556,-1.17668 -2.24218,-1.77735 -0.73624,-0.60034 -1.46102,-1.20803 -2.17579,-1.82422 -1.42952,-1.23237 -2.81586,-2.49624 -4.16015,-3.78906 -0.67215,-0.6464 -1.33336,-1.30015 -1.98438,-1.96094 -0.65134,-0.66111 -1.29157,-1.32888 -1.92187,-2.0039 -1.25997,-1.34938 -2.47775,-2.72491 -3.6543,-4.12696 -3.2e-4,-3.8e-4 3.3e-4,-0.002 0,-0.002 -1.17656,-1.40204 -2.3122,-2.82847 -3.40625,-4.2793 -2.73509,-3.62709 -5.21406,-7.39952 -7.443355,-11.28906 -2.83e-4,-4.9e-4 2.83e-4,-0.001 0,-0.002 -1.337259,-2.33325 -2.584812,-4.70893 -3.74414,-7.11914 -0.772803,-1.6066 -1.508251,-3.22929 -2.203125,-4.86524 -2.36e-4,-5.5e-4 2.35e-4,-10e-4 0,-0.002 -0.694805,-1.63597 -1.350969,-3.28583 -1.96875,-4.94726 -0.309003,-0.831 -0.608534,-1.66532 -0.898438,-2.50196 -0.579793,-1.67328 -1.120923,-3.35785 -1.625,-5.05078 -0.755954,-2.53877 -1.427404,-5.09787 -2.015625,-7.66992 -1.41e-4,-6.2e-4 1.42e-4,-10e-4 0,-0.002 -0.392032,-1.71452 -0.747772,-3.43571 -1.066406,-5.16016 -0.637526,-3.45012 -1.129359,-6.91624 -1.478516,-10.38281 -0.174565,-1.7333 -0.314136,-3.46763 -0.417968,-5.19922 -1.142296,-19.04734 1.967882,-37.87277 8.726562,-53.89258 13.209131,-31.30904 29.187811,-49.7442 46.978511,-65.11914 1.6767,-1.44902 3.44224,-2.83597 5.26758,-4.18164 71.26981,-55.33905 140.77878,-53.81698 230.48437,-44.85546 52.66622,5.26132 136.50497,19.77129 199.83007,58.6953 5.092,2.9495 9.8287,5.69822 14.67774,8.51172 17.5503,6.89266 34.98299,13.6711 52.40429,19.64844 2.15191,-0.40799 5.47448,-2.81568 2.42188,-5.30274 -46.85886,-31.06154 -96.92452,-56.61975 -148.1582,-75.58593 -0.005,-0.002 -0.0103,-0.004 -0.0156,-0.006 -2.71015,-1.00319 -5.42427,-1.9868 -8.14062,-2.95312 -0.0503,-0.0179 -0.10014,-0.0368 -0.15039,-0.0547 -0.0416,-0.0148 -0.0834,-0.0282 -0.125,-0.043 -2.72208,-0.96703 -5.44615,-1.91807 -8.17383,-2.84766 -0.008,-0.003 -0.017,-0.005 -0.0254,-0.008 -0.003,-10e-4 -0.006,-0.003 -0.01,-0.004 -5.46838,-1.86328 -10.9482,-3.64893 -16.43555,-5.35937 -0.3631,-0.11311 -0.72665,-0.22155 -1.08984,-0.33399 -2.2348,-0.6923 -4.4697,-1.3725 -6.70703,-2.03906 -0.70421,-0.20968 -1.40884,-0.41594 -2.11328,-0.62305 -1.89738,-0.55819 -3.7964,-1.10697 -5.69531,-1.64648 -0.82745,-0.23496 -1.6547,-0.46977 -2.48243,-0.70117 -1.9424,-0.54332 -3.88442,-1.0741 -5.82812,-1.59766 -0.65303,-0.17584 -1.30583,-0.35569 -1.95899,-0.5293 -2.63485,-0.70057 -5.27154,-1.38686 -7.9082,-2.05078 -9.37035,-2.31933 -18.77354,-4.43029 -28.1914,-6.31836 -34.67255,-6.95091 -69.52465,-10.88468 -103.48006,-11.115 z m 359.96484,119.80078 c -1.29276,-0.044 -2.53833,0.34215 -3.60547,0.80078 -1.15557,0.49945 -2.98455,0.46379 -3.25781,1.92578 -0.15191,1.2869 1.30616,2.41595 2.52539,2.76563 1.64371,0.42476 3.2752,0.95128 4.89453,1.58593 1.76349,0.5331 3.52696,1.49315 5.30273,1.65625 1.87118,0.0384 3.3789,-0.8967 4.57422,-1.99414 0.52483,-0.5883 0.88378,-1.89607 -0.24414,-2.50586 -2.66555,-0.96635 -5.42736,-1.86366 -7.83789,-3.61132 -0.78346,-0.41544 -1.57591,-0.59663 -2.35156,-0.62305 z m 24.20508,10.94531 c -1.53221,-0.0568 -2.98761,0.20118 -4.19141,0.9336 -1.75134,0.4248 -0.40871,3.07914 1.28906,3.04296 2.05366,0.53899 4.15015,1.84408 6.18946,1.67383 1.78203,-0.25479 3.03044,-2.14324 2.04297,-4.03515 -0.19292,-0.25273 -0.42385,-0.46355 -0.67188,-0.66407 -1.51648,-0.52266 -3.12601,-0.89441 -4.6582,-0.95117 z"
             style="opacity:1;fill:#f8a7b8;fill-opacity:1;fill-rule:nonzero;stroke:none;stroke-width:5;stroke-linecap:round;stroke-linejoin:round;stroke-miterlimit:4;stroke-dasharray:none;stroke-dashoffset:0;stroke-opacity:1"
             inkscape:connector-curvature="0" />
          <path
             sodipodi:nodetypes="ccssccccccsscccssccccccccccccccccccccccccscccsscccccccccccccsscccccccccccccccccccccccccc"
             id="path4800"
             d="m 296.31837,639.42439 c -56.54786,0.32135 -106.29322,12.25557 -157.21095,53.75586 -17.7907,15.37494 -33.76938,33.8101 -46.97851,65.11914 -19.661614,46.60307 -8.442318,116.9563 48.50195,147.41211 23.86554,12.76414 34.56621,19.89985 125.29493,20.78516 l 193.34375,0 540.73046,0 0,-8.66993 -734.07421,0 c -47.40245,0.21367 -81.08944,2.13771 -110.61134,-31.14648 -64.344173,-76.77807 16.50726,-177.78209 123.09572,-197.4707 29.978,-5.53742 58.61187,-8.15893 86.39062,-8.16993 23.07508,-0.009 45.5573,1.7944 67.73047,5.21289 0.0325,0.005 0.0652,0.009 0.0977,0.0137 0.045,0.007 0.0898,0.0145 0.13476,0.0215 2.66134,0.41171 5.31782,0.84643 7.97071,1.30469 5.39473,0.93187 10.77479,1.95758 16.14062,3.07812 2.57535,0.53781 5.14672,1.09929 7.7168,1.67969 0.22197,0.0501 0.44408,0.1 0.66601,0.15039 2.44451,0.55561 4.88752,1.12904 7.32813,1.72266 0.1719,0.0418 0.34374,0.083 0.51562,0.125 5.17492,1.26443 10.34284,2.61315 15.50586,4.04492 0.34773,0.0964 0.69528,0.19582 1.04297,0.29297 2.16333,0.60464 4.32603,1.22208 6.48828,1.85547 0.49748,0.14568 0.99475,0.29226 1.49219,0.43945 2.27586,0.67364 4.55271,1.36138 6.82812,2.06641 0.21282,0.0659 0.42586,0.12911 0.63868,0.19531 2.59576,0.80761 5.19096,1.63456 7.78711,2.48242 0.0182,0.006 0.0364,0.0116 0.0547,0.0176 0.084,0.0274 0.16794,0.0565 0.25196,0.084 2.33071,0.76258 4.66237,1.54335 6.99414,2.33789 0.60932,0.20758 1.2187,0.41917 1.82812,0.62891 1.94526,0.66964 3.89134,1.35144 5.83789,2.04297 0.60022,0.21319 1.20042,0.42536 1.80078,0.64062 2.15885,0.77419 4.31742,1.56065 6.47852,2.36133 0.33208,0.12302 0.66395,0.2416 0.99609,0.36524 2.47251,0.92052 4.94752,1.8598 7.42383,2.81445 0.58098,0.22395 1.16293,0.45387 1.74414,0.67969 1.8534,0.72015 3.70843,1.44855 5.56446,2.1875 0.81028,0.32258 1.6208,0.64847 2.43164,0.97461 1.83894,0.7397 3.67949,1.48826 5.52148,2.24609 0.60623,0.2494 1.21178,0.49669 1.81836,0.74805 2.49879,1.03548 5.00055,2.08216 7.50586,3.15039 5.21467,2.41914 10.17656,4.69089 14.95508,6.86719 1.46025,0.66498 2.85295,1.29607 4.27148,1.93945 3.759,1.70503 7.50744,3.40328 10.9668,4.96289 4.76973,2.15038 9.20879,4.14994 13.38867,6.04492 3.71468,1.68411 7.33094,3.33377 10.56055,4.83399 5.7e-4,2.6e-4 10e-4,-2.7e-4 0.002,0 3.91696,0.68471 7.30164,1.45571 8.75586,2.5332 0.004,0.003 0.009,0.006 0.0137,0.01 15.80375,4.47016 31.45252,9.48908 47.33789,13.66993 6.9197,1.68957 13.91516,3.04705 20.86133,4.62109 0.92988,0.20486 1.86046,0.40166 2.79102,0.60352 1.05861,-0.46067 0.90549,-1.93828 0.2832,-2.70313 -0.2247,-0.3273 -0.58314,-0.51058 -0.89649,-0.73828 -3.16034,-2.05151 -6.76937,-3.22704 -10.19531,-4.74023 -5.35222,-2.1048 -10.7434,-4.13483 -15.92383,-6.64454 -8.84659,-4.11127 -17.69871,-8.22075 -26.40625,-12.62109 -13.47181,-6.8364 -42.21734,-23.69226 -75.21289,-42.80469 -63.3251,-38.92401 -147.16387,-53.43399 -199.83007,-58.69531 -25.85094,-2.58248 -50.02505,-4.54955 -73.04688,-4.71485 -1.83855,-0.0132 -3.67002,-0.0142 -5.49414,-0.004 z m 419.12305,133.55664 c -0.77968,-0.0457 -0.9637,0.99482 -0.66407,1.54688 0.44177,1.96534 1.38033,3.82826 2.75977,5.30273 3.94653,1.2767 8.09766,2.3666 12.2793,1.89453 0.82427,-0.37414 0.52822,-1.51874 -0.0234,-2.00586 -0.27875,-0.41926 -0.62637,-0.79096 -1.01563,-1.10937 -4.15018,-2.50861 -8.77226,-4.06448 -13.33593,-5.62891 z m 26.19336,7.91797 c -0.6358,0.95456 0.20111,1.99603 0.52929,2.89844 0.88873,1.52508 2.97318,2.14504 4.5918,1.5664 0.61333,-0.51305 0.10426,-1.38762 -0.22266,-1.91797 -0.27996,-0.42733 -0.60292,-0.83432 -1.00586,-1.15234 -1.01274,-0.67139 -2.18578,-1.08846 -3.38086,-1.31055 -0.17074,-0.0317 -0.34045,-0.0602 -0.51171,-0.084 z m 13.94726,2.25586 c -0.63289,0.30174 -0.33175,1.15212 0.041,1.54492 0.79996,1.44447 1.8628,3.10025 3.64648,3.33789 0.91438,0.13745 2.07143,0.21001 2.70117,-0.60742 0.21788,-0.86348 -0.57683,-1.48609 -1.16015,-1.96484 -1.40603,-1.13401 -3.10666,-1.88567 -4.875,-2.24414 -0.11791,-0.0239 -0.2351,-0.046 -0.35352,-0.0664 z"
             style="opacity:1;fill:#ffe5ec;fill-opacity:1;fill-rule:nonzero;stroke:none;stroke-width:5;stroke-linecap:round;stroke-linejoin:round;stroke-miterlimit:4;stroke-dasharray:none;stroke-dashoffset:0;stroke-opacity:1"
             inkscape:connector-curvature="0" />
          <path
             sodipodi:nodetypes="ccccssccccscccsccccccscc"
             id="path4776-6"
             style="font-style:normal;font-variant:normal;font-weight:500;font-stretch:normal;font-size:88.65857697px;line-height:125%;font-family:Artifika;-inkscape-font-specification:'Artifika Medium';text-align:end;letter-spacing:0px;word-spacing:0px;writing-mode:lr-tb;text-anchor:end;fill:#000000;fill-opacity:1;stroke:none;stroke-width:1px;stroke-linecap:butt;stroke-linejoin:miter;stroke-opacity:1"
             d="m 730.9013,881.17154 7.53238,0.0445 -0.0192,3.24672 c -0.49215,0.25683 -1.1718,0.49813 -2.03895,0.72389 -0.8383,0.22594 -1.77743,0.42242 -2.8174,0.58944 -1.03998,0.16702 -2.12299,0.29049 -3.24903,0.37042 -1.12604,0.0799 -2.20853,0.11683 -3.24748,0.11069 -0.89465,-0.005 -1.71681,-0.0679 -2.46648,-0.18774 -0.74985,-0.091 -1.41243,-0.29694 -1.98774,-0.61781 -0.54663,-0.29184 -0.97714,-0.69843 -1.29153,-1.21978 -0.31422,-0.55021 -0.46869,-1.27265 -0.4634,-2.1673 l 0.21687,-36.70955 -7.61896,-0.045 0.0192,-3.24671 c 0.60759,-0.25616 1.4604,-0.49644 2.55843,-0.72084 1.09803,-0.22439 2.29682,-0.4049 3.59636,-0.54153 1.3284,-0.13645 2.67106,-0.24397 4.02797,-0.32254 1.38579,-0.0784 2.64144,-0.11427 3.76697,-0.10762 0.60605,0.003 1.13987,0.0209 1.60145,0.0528 0.46159,0.0316 0.85068,0.12048 1.16729,0.26665 0.3166,0.14617 0.54611,0.37841 0.68853,0.69672 0.17146,0.28962 0.25549,0.72303 0.25208,1.30022 l -0.22736,38.48443 z"
             inkscape:connector-curvature="0" />
        </g>
      </g>
    </g>
  </g>
</svg>
